<svg width="31" height="30" fill="none" xmlns="http://www.w3.org/2000/svg"><g id="how_to_reg_24dp_FILL0_wght400_GRAD0_opsz24"><path id="Vector" d="M3 25v-3.5c0-.688.177-1.333.531-1.938A3.464 3.464 0 0 1 5 18.188c1.063-.541 2.26-1 3.594-1.375 1.333-.375 2.802-.562 4.406-.562.625 0 1.234.031 1.828.094.594.062 1.172.156 1.735.281l-2.188 2.188a3.75 3.75 0 0 0-.672-.063H13c-1.48 0-2.807.177-3.984.531-1.177.354-2.141.74-2.891 1.157A1.217 1.217 0 0 0 5.5 21.5v1h7.813l2.5 2.5H3Zm16.938.5-4.313-4.313 1.75-1.75L19.938 22l6.312-6.313 1.75 1.75-8.063 8.063ZM13 15c-1.375 0-2.552-.49-3.531-1.469C8.489 12.552 8 11.375 8 10s.49-2.552 1.469-3.531C10.448 5.489 11.625 5 13 5s2.552.49 3.531 1.469C17.511 7.448 18 8.625 18 10s-.49 2.552-1.469 3.531C15.552 14.511 14.375 15 13 15Zm0-2.5c.688 0 1.276-.245 1.766-.734.49-.49.734-1.079.734-1.766 0-.688-.245-1.276-.734-1.766A2.407 2.407 0 0 0 13 7.5c-.688 0-1.276.245-1.766.734A2.407 2.407 0 0 0 10.5 10c0 .688.245 1.276.734 1.766.49.49 1.079.734 1.766.734Z" fill="#00B6F1"/></g></svg>