<svg width="30" height="31" fill="none" xmlns="http://www.w3.org/2000/svg"><g id="query_stats_24dp_FILL0_wght400_GRAD0_opsz24"><path id="Vector" d="M3.281 23.219 1.25 21.75l6.25-10 3.75 4.375 5-8.125 3.406 5.094c-.479.02-.932.078-1.36.172a8.066 8.066 0 0 0-1.265.39l-.687-1.031-4.75 7.719-3.781-4.407L3.28 23.22ZM26.97 29.25l-3.907-3.906c-.416.291-.88.51-1.39.656a5.718 5.718 0 0 1-1.578.219c-1.563 0-2.89-.547-3.985-1.64-1.093-1.095-1.64-2.423-1.64-3.985 0-1.563.547-2.89 1.64-3.985 1.094-1.093 2.422-1.64 3.985-1.64 1.562 0 2.89.547 3.984 1.64 1.094 1.094 1.64 2.422 1.64 3.985 0 .541-.072 1.067-.218 1.578a5.05 5.05 0 0 1-.656 1.422l3.906 3.875-1.781 1.781Zm-6.875-5.531c.875 0 1.614-.302 2.218-.907.605-.604.907-1.343.907-2.218s-.302-1.615-.907-2.219c-.604-.604-1.343-.906-2.218-.906s-1.615.302-2.219.906c-.604.604-.906 1.344-.906 2.219 0 .875.302 1.614.906 2.218.604.605 1.344.907 2.219.907Zm2.781-10a8.153 8.153 0 0 0-1.234-.406 6.913 6.913 0 0 0-1.328-.188L26.718 3l2.031 1.469-5.875 9.25Z" fill="#23BAED"/></g></svg>