<svg width="242" height="68" fill="none" xmlns="http://www.w3.org/2000/svg"><g clip-path="url('#clip0_5006_323')" fill-rule="evenodd" clip-rule="evenodd"><path d="M118.982 33.566c13.12 0 16.879-2.964 16.879-13.723v-3.891c0-10.615-4.024-14.506-16.879-14.506H82.971v8.614c11.94 0 23.806.036 35.746.036 5.409 0 7.12 1.386 7.12 6.265v3.096c0 4.747-1.711 6-6.988 6-12.072 0-23.818.133-35.878.133v20.843h10.024V33.578h25.987v-.012Zm76.564 9.566c1.193 2.638 3.169 4.289 6.325 4.289 2.904 0 4.82-1.783 5.94-4.29 2.904-6.794 15.361-34.818 18.397-41.685h-10.951l-13.651 32.517-12.855-29.481c-1.253-2.964-2.903-4.024-6.132-4.024-3.229 0-4.747 1.06-6.072 4.024l-13.385 29.481-13.181-32.517h-11.144l17.481 41.686c1.061 2.578 2.771 4.289 6 4.289s5.145-1.711 6.398-4.29l13.782-29.01 13.06 29.01h-.012Zm45.373 3.289V1.35l-10.024.084V46.42h10.024Z" fill="#fff"/><path d="M8.66 25.108c2.18 0 4.084.795 5.71 2.385 1.627 1.59 2.494 3.47 2.578 5.65-.084 4.603 1.506 8.615 4.771 12.049 3.265 3.349 7.193 5.024 11.795 5.024h.374c4.518 0 8.41-1.675 11.674-5.024 3.35-3.35 4.976-7.362 4.892-12.048-.085-4.602-1.796-8.494-5.145-11.675-3.433-3.265-7.445-4.855-12.048-4.77-2.18-.085-4.036-.94-5.59-2.579-1.542-1.626-2.325-3.578-2.325-5.831 0-2.253.819-4.205 2.445-5.843C29.418.807 31.407 0 33.755 0c2.35 0 4.205.82 5.843 2.446 1.627 1.626 2.446 3.578 2.446 5.843 0 4.434 1.59 8.373 4.771 11.795 3.265 3.265 7.157 4.94 11.675 5.024 3.011-.169 5.313.915 6.903 3.265 1.59 2.265 2.096 4.65 1.506 7.156-1.169 4.18-3.855 6.277-8.036 6.277h-.373c-4.687.169-8.579 1.88-11.675 5.145-3.18 3.18-4.77 7.072-4.77 11.674 0 2.265-.82 4.205-2.447 5.831-1.626 1.639-3.578 2.446-5.843 2.446h-.253c-2.265 0-4.18-.82-5.77-2.446-1.591-1.626-2.386-3.578-2.386-5.831 0-4.602-1.59-8.494-4.771-11.674-3.18-3.265-7.024-4.976-11.542-5.145-2.422.085-4.494-.686-6.217-2.325-1.71-1.627-2.578-3.663-2.578-6.084 0-2.265.82-4.205 2.446-5.831C4.31 25.939 6.31 25.12 8.647 25.12l.012-.012Z" fill="#23BAED"/><path d="M9.214 49.48a8.664 8.664 0 0 1 8.662 8.663 8.664 8.664 0 0 1-8.662 8.663c-4.783 0-8.675-3.88-8.675-8.663a8.664 8.664 0 0 1 8.663-8.662h.012ZM58.309.387a8.664 8.664 0 0 1 8.662 8.662 8.664 8.664 0 0 1-8.662 8.663 8.664 8.664 0 0 1-8.663-8.663A8.664 8.664 0 0 1 58.31.386Z" fill="#91BE3E"/><path d="M58.309 49.48a8.664 8.664 0 0 1 8.662 8.663 8.664 8.664 0 0 1-8.662 8.663 8.664 8.664 0 0 1-8.663-8.663 8.664 8.664 0 0 1 8.663-8.662ZM9.189.35c-2.264 0-4.204.819-5.83 2.445C1.718 4.422.9 6.373.9 8.626c0 2.422.855 4.458 2.578 6.085 1.71 1.626 3.747 2.41 6.084 2.325 4.687.168 8.578 1.88 11.674 5.144 3.181 3.18 4.771 7.072 4.771 11.675 0 2.265.82 4.204 2.446 5.83 1.627 1.627 3.627 2.447 5.964 2.447 2.337 0 4.205-.82 5.831-2.446 1.627-1.639 2.446-3.578 2.446-5.831 0-2.253-.771-4.205-2.325-5.831-1.555-1.627-3.41-2.495-5.59-2.579-4.772.084-8.832-1.542-12.181-4.891-3.434-3.434-5.108-7.494-5.024-12.18-.084-2.181-.916-4.06-2.506-5.651-1.59-1.59-3.554-2.386-5.904-2.386L9.19.35Z" fill="#006BAF"/><path d="m82.874 62.938 1.627-.145v.097c.072.482.193.976.47 1.373.265.398.674.675 1.108.868.542.24 1.133.337 1.723.337.506 0 1.024-.06 1.494-.253.361-.145.71-.35.94-.675a1.58 1.58 0 0 0 .3-.927c0-.35-.096-.615-.288-.88-.241-.301-.639-.506-.988-.638-.615-.23-1.398-.398-2.036-.555-.687-.168-1.615-.397-2.241-.722-.506-.265-.952-.627-1.265-1.109a2.712 2.712 0 0 1-.422-1.482c0-.614.18-1.168.506-1.686.362-.555.88-.94 1.494-1.193a5.69 5.69 0 0 1 2.145-.398c.783 0 1.566.12 2.289.422.638.265 1.168.675 1.542 1.253a3.55 3.55 0 0 1 .578 1.867v.097l-1.65.132v-.096c-.073-.603-.29-1.18-.772-1.578-.53-.434-1.277-.53-1.94-.53-.662 0-1.445.072-1.951.481-.361.29-.59.663-.59 1.145 0 .373.132.687.41.94.409.373 1.71.674 2.24.795.783.18 1.832.41 2.566.735.59.277 1.157.662 1.519 1.205.337.506.493 1.072.493 1.686 0 .65-.192 1.241-.542 1.783-.385.59-.915 1.012-1.554 1.301-.71.326-1.47.458-2.253.458-.891 0-1.831-.108-2.65-.458-.7-.3-1.278-.759-1.7-1.41-.42-.638-.626-1.348-.65-2.12v-.096l.049-.024Zm22.759 3.891V55.131h1.735v11.698h-1.735Zm15-3.891 1.626-.145v.097c.072.482.193.976.47 1.373.265.398.675.675 1.108.868.542.24 1.133.337 1.723.337.506 0 1.024-.06 1.494-.253.362-.145.711-.35.94-.675.193-.277.301-.578.301-.927 0-.35-.096-.615-.289-.88-.241-.301-.639-.506-.988-.638-.615-.23-1.398-.398-2.036-.555-.687-.168-1.615-.397-2.241-.722-.506-.265-.952-.627-1.265-1.109a2.714 2.714 0 0 1-.422-1.482c0-.614.181-1.168.506-1.686.362-.555.88-.94 1.494-1.193a5.694 5.694 0 0 1 2.145-.398c.783 0 1.566.12 2.289.422.638.265 1.168.675 1.542 1.253.373.566.554 1.193.578 1.867v.097l-1.65.132v-.096c-.073-.603-.289-1.18-.771-1.578-.531-.434-1.277-.53-1.94-.53s-1.446.072-1.952.481c-.361.29-.59.663-.59 1.145 0 .373.132.687.409.94.41.373 1.711.674 2.241.795.783.18 1.832.41 2.567.735.59.277 1.156.662 1.518 1.205.337.506.494 1.072.494 1.686 0 .65-.193 1.241-.543 1.783-.385.59-.915 1.012-1.554 1.301-.711.326-1.47.458-2.253.458-.891 0-1.831-.108-2.65-.458-.699-.3-1.277-.759-1.699-1.41-.422-.638-.627-1.348-.651-2.12v-.096l.049-.024Zm25.421-6.253h-3.783v-1.554h9.301v1.554h-3.784V66.83h-1.734V56.685Zm19.939 0v3.325h6.337v1.555h-6.337v3.71h7.048v1.554h-8.771V55.131h8.506v1.554H165.993Zm25.855 8.048c.168-.518.337-1.024.518-1.53l2.795-8.06h2.217v11.698h-1.663v-9.108l-3.181 9.108h-1.518l-3.144-9.264v9.264h-1.663V55.143h2.458l2.735 8.205c.157.457.301.927.458 1.385h-.012Zm25.529-1.385h-4.699l-1.253 3.481h-1.831l4.482-11.698h1.807l4.759 11.698h-1.952l-1.325-3.481h.012Zm15.024-.41 1.626-.145v.097c.073.482.193.976.47 1.373.265.398.675.675 1.109.868.542.24 1.132.337 1.722.337.506 0 1.025-.06 1.494-.253.362-.145.711-.35.94-.675.193-.277.301-.578.301-.927 0-.35-.096-.615-.289-.88-.241-.301-.638-.506-.988-.638-.614-.23-1.397-.398-2.036-.555-.687-.168-1.614-.397-2.241-.722-.506-.265-.952-.627-1.265-1.109a2.713 2.713 0 0 1-.421-1.482c0-.614.18-1.168.506-1.686.361-.555.879-.94 1.493-1.193a5.694 5.694 0 0 1 2.145-.398c.783 0 1.566.12 2.289.422.639.265 1.169.675 1.542 1.253.374.566.554 1.193.579 1.867v.097l-1.651.132v-.096c-.072-.603-.289-1.18-.771-1.578-.53-.434-1.277-.53-1.94-.53-.662 0-1.446.072-1.952.481-.361.29-.59.663-.59 1.145 0 .373.133.687.41.94.409.373 1.711.674 2.241.795.783.18 1.831.41 2.566.735.59.277 1.156.662 1.518 1.205.337.506.494 1.072.494 1.686 0 .65-.193 1.241-.542 1.783-.386.59-.916 1.012-1.555 1.301-.71.326-1.469.458-2.252.458-.892 0-1.832-.108-2.651-.458-.699-.3-1.277-.759-1.699-1.41-.421-.638-.626-1.348-.65-2.12v-.096l.048-.024Zm-19.204-1.036h3.614l-1.145-3.048a39.864 39.864 0 0 1-.71-2.036c-.145.626-.326 1.24-.555 1.843l-1.204 3.229v.012Z" fill="#91BE3E"/></g><defs><clipPath id="clip0_5006_323"><path fill="#fff" transform="translate(.25)" d="M0 0h241.5v67.022H0z"/></clipPath></defs></svg>