<svg width="14" height="14" fill="none" xmlns="http://www.w3.org/2000/svg"><path id="Vector" d="M1.316 13.25c-.362 0-.672-.129-.93-.386a1.267 1.267 0 0 1-.386-.93V4.697c0-.361.129-.671.387-.929.257-.258.567-.386.929-.386h2.631V2.066c0-.362.13-.672.387-.93C4.592.88 4.9.75 5.264.75h2.63c.363 0 .672.129.93.387.258.257.387.567.387.929v1.316h2.631c.362 0 .672.128.93.386.257.258.386.568.386.93v7.236c0 .362-.129.672-.387.93a1.267 1.267 0 0 1-.929.386H1.316Zm0-1.316h10.526V4.697H1.316v7.237Zm3.947-8.552h2.632V2.066H5.263v1.316Z" fill="#797979"/></svg>