<svg width="31" height="30" fill="none" xmlns="http://www.w3.org/2000/svg"><g id="campaign_24dp_FILL0_wght400_GRAD0_opsz24"><path id="Vector" d="M23 16.25v-2.5h5v2.5h-5ZM24.5 25l-4-3 1.5-2 4 3-1.5 2ZM22 10l-1.5-2 4-3L26 7l-4 3ZM6.75 23.75v-5H5.5a2.407 2.407 0 0 1-1.766-.734A2.407 2.407 0 0 1 3 16.25v-2.5c0-.688.245-1.276.734-1.766A2.407 2.407 0 0 1 5.5 11.25h5l6.25-3.75v15l-6.25-3.75H9.25v5h-2.5Zm7.5-5.688v-6.125l-3.063 1.813H5.5v2.5h5.688l3.062 1.813ZM18 19.188v-8.375a5.71 5.71 0 0 1 1.36 1.829c.343.718.515 1.505.515 2.359 0 .854-.172 1.64-.516 2.36A5.71 5.71 0 0 1 18 19.187Z" fill="#23BAED"/></g></svg>