<svg width="29" height="30" fill="none" xmlns="http://www.w3.org/2000/svg"><g id="attach_money_24dp_FILL0_wght400_GRAD0_opsz24"><path id="Vector" d="M13.335 26.25v-2.688a5.99 5.99 0 0 1-2.734-1.437c-.767-.708-1.33-1.708-1.689-3l2.211-.938c.3 1 .743 1.76 1.33 2.282.588.52 1.36.781 2.316.781.817 0 1.509-.193 2.077-.578.567-.386.851-.985.851-1.797 0-.73-.219-1.307-.657-1.734-.438-.427-1.454-.912-3.048-1.453-1.713-.563-2.888-1.235-3.526-2.016-.637-.781-.956-1.735-.956-2.86 0-1.354.418-2.406 1.255-3.156s1.693-1.177 2.57-1.281V3.75h2.39v2.625c.996.167 1.818.547 2.465 1.14a5.248 5.248 0 0 1 1.42 2.173l-2.212 1c-.239-.667-.577-1.167-1.015-1.5-.439-.334-1.036-.5-1.793-.5-.877 0-1.544.203-2.002.609a1.943 1.943 0 0 0-.688 1.515c0 .688.3 1.23.897 1.626.597.395 1.633.812 3.107 1.25 1.375.416 2.416 1.078 3.123 1.984.707.906 1.06 1.953 1.06 3.14 0 1.48-.418 2.605-1.254 3.375-.837.771-1.873 1.25-3.108 1.438v2.625h-2.39Z" fill="#23BAED"/></g></svg>