<svg width="31" height="30" fill="none" xmlns="http://www.w3.org/2000/svg"><g id="shopping_cart_24dp_FILL0_wght400_GRAD0_opsz24"><path id="Vector" d="M9.25 27.5a2.407 2.407 0 0 1-1.766-.734A2.407 2.407 0 0 1 6.75 25c0-.688.245-1.276.734-1.766A2.407 2.407 0 0 1 9.25 22.5c.688 0 1.276.245 1.766.734.49.49.734 1.078.734 1.766s-.245 1.276-.734 1.766c-.49.49-1.079.734-1.766.734Zm12.5 0a2.407 2.407 0 0 1-1.766-.734A2.407 2.407 0 0 1 19.25 25c0-.688.245-1.276.734-1.766a2.407 2.407 0 0 1 1.766-.734c.688 0 1.276.245 1.766.734.49.49.734 1.078.734 1.766s-.245 1.276-.734 1.766c-.49.49-1.078.734-1.766.734ZM8.187 7.5l3 6.25h8.75l3.438-6.25H8.187ZM7 5h18.438c.479 0 .843.214 1.093.64.25.428.26.86.032 1.298l-4.438 8c-.23.416-.537.74-.922.968a2.43 2.43 0 0 1-1.265.344h-9.313l-1.375 2.5h15v2.5h-15c-.938 0-1.646-.412-2.125-1.234-.48-.823-.5-1.641-.063-2.453L8.75 14.5 4.25 5h-2.5V2.5h4.063L7 5Z" fill="#00B6F1"/></g></svg>