<svg width="381" height="155" fill="none" xmlns="http://www.w3.org/2000/svg"><path d="M13.056 143.809v-18.704h6.145c1.461 0 2.663.241 3.607.722.945.481 1.64 1.131 2.084 1.95.464.82.695 1.746.695 2.779 0 1.015-.223 1.933-.668 2.752-.445.819-1.14 1.479-2.084 1.977-.944.481-2.155.722-3.634.722h-3.9v7.802h-2.245Zm2.245-9.699h3.847c1.496 0 2.556-.312 3.18-.935.64-.642.961-1.515.961-2.619 0-1.122-.32-1.995-.962-2.618-.623-.642-1.683-.962-3.179-.962H15.3v7.134Zm18.35 10.019c-1.247 0-2.369-.285-3.367-.855a6.294 6.294 0 0 1-2.377-2.404c-.57-1.051-.855-2.28-.855-3.688 0-1.407.293-2.627.881-3.66.588-1.051 1.38-1.862 2.378-2.432 1.015-.57 2.147-.855 3.394-.855 1.246 0 2.369.285 3.366.855.998.57 1.781 1.381 2.351 2.432.588 1.033.882 2.253.882 3.66 0 1.408-.294 2.637-.882 3.688a6.238 6.238 0 0 1-2.404 2.404c-.998.57-2.12.855-3.367.855Zm0-1.924c.766 0 1.478-.187 2.137-.561.66-.374 1.194-.935 1.604-1.683.41-.748.614-1.674.614-2.779 0-1.104-.205-2.03-.614-2.778-.392-.749-.918-1.31-1.577-1.684a4.209 4.209 0 0 0-2.11-.561c-.767 0-1.479.187-2.138.561-.66.374-1.194.935-1.603 1.684-.41.748-.615 1.674-.615 2.778 0 1.105.205 2.031.615 2.779.41.748.935 1.309 1.576 1.683a4.21 4.21 0 0 0 2.111.561Zm11.95 1.604-3.874-13.253h2.244l2.805 10.394 3.1-10.394h2.538l3.126 10.394 2.779-10.394h2.271l-3.874 13.253h-2.298l-3.26-10.928-3.26 10.928h-2.297Zm22.934.32c-1.265 0-2.387-.285-3.367-.855a6.36 6.36 0 0 1-2.324-2.431c-.552-1.033-.828-2.253-.828-3.661 0-1.389.276-2.6.828-3.633.552-1.051 1.318-1.862 2.298-2.432.997-.588 2.146-.882 3.446-.882 1.283 0 2.387.294 3.313.882a5.76 5.76 0 0 1 2.165 2.271c.498.944.748 1.96.748 3.046 0 .196-.01.392-.027.588v.668H64.233c.054 1.015.285 1.861.695 2.538.427.659.953 1.158 1.576 1.497a4.295 4.295 0 0 0 2.03.507c.927 0 1.702-.214 2.325-.641a3.669 3.669 0 0 0 1.363-1.737h2.218a6.026 6.026 0 0 1-2.058 3.073c-.997.801-2.28 1.202-3.847 1.202Zm0-11.997c-1.069 0-2.022.33-2.86.989-.818.641-1.29 1.585-1.415 2.832h8.336c-.053-1.193-.463-2.128-1.229-2.805s-1.71-1.016-2.832-1.016Zm9.254 11.677v-13.253h2.03l.187 2.538a4.811 4.811 0 0 1 1.87-2.084c.838-.516 1.87-.775 3.1-.775v2.352h-.615c-.783 0-1.505.142-2.164.427-.659.267-1.184.731-1.576 1.39-.392.659-.588 1.567-.588 2.725v6.68h-2.245Zm15.168.32c-1.264 0-2.386-.285-3.366-.855a6.36 6.36 0 0 1-2.325-2.431c-.552-1.033-.828-2.253-.828-3.661 0-1.389.276-2.6.828-3.633.552-1.051 1.319-1.862 2.298-2.432.998-.588 2.147-.882 3.447-.882 1.282 0 2.387.294 3.313.882a5.76 5.76 0 0 1 2.164 2.271c.499.944.748 1.96.748 3.046 0 .196-.008.392-.026.588v.668H88.656c.053 1.015.285 1.861.694 2.538.428.659.953 1.158 1.577 1.497a4.295 4.295 0 0 0 2.03.507c.927 0 1.702-.214 2.325-.641a3.669 3.669 0 0 0 1.363-1.737h2.217a6.026 6.026 0 0 1-2.057 3.073c-.998.801-2.28 1.202-3.848 1.202Zm0-11.997c-1.068 0-2.021.33-2.858.989-.82.641-1.292 1.585-1.416 2.832h8.336c-.054-1.193-.463-2.128-1.23-2.805-.765-.677-1.71-1.016-2.832-1.016Zm15.266 11.997c-1.318 0-2.476-.303-3.474-.908a6.316 6.316 0 0 1-2.297-2.485c-.535-1.051-.802-2.244-.802-3.58 0-1.336.276-2.521.828-3.554.552-1.051 1.318-1.87 2.298-2.458.98-.606 2.138-.909 3.474-.909 1.086 0 2.048.223 2.885.668a4.819 4.819 0 0 1 1.951 1.871v-8.203h2.244v19.238h-2.031l-.213-2.191c-.428.641-1.042 1.22-1.844 1.736-.802.517-1.808.775-3.019.775Zm.24-1.95c.891 0 1.675-.205 2.352-.615a4.265 4.265 0 0 0 1.603-1.763c.392-.748.587-1.621.587-2.619 0-.997-.195-1.87-.587-2.618a4.097 4.097 0 0 0-1.603-1.737c-.677-.427-1.461-.641-2.352-.641-.873 0-1.656.214-2.351.641-.677.41-1.211.989-1.603 1.737-.374.748-.561 1.621-.561 2.618 0 .998.187 1.871.561 2.619a4.513 4.513 0 0 0 1.603 1.763c.695.41 1.478.615 2.351.615Zm24.677 1.95c-1.086 0-2.057-.222-2.912-.668a4.639 4.639 0 0 1-1.924-1.87l-.214 2.218h-2.03v-19.238h2.244v8.176c.428-.641 1.033-1.22 1.817-1.737.802-.516 1.817-.775 3.046-.775 1.318 0 2.467.303 3.447.909a6.133 6.133 0 0 1 2.271 2.485c.552 1.051.828 2.244.828 3.58 0 1.336-.276 2.529-.828 3.58a6.111 6.111 0 0 1-2.298 2.458c-.98.588-2.129.882-3.447.882Zm-.24-1.95c.89 0 1.674-.205 2.351-.615a4.513 4.513 0 0 0 1.603-1.763c.392-.748.588-1.621.588-2.619 0-.997-.196-1.87-.588-2.618-.392-.748-.926-1.327-1.603-1.737-.677-.427-1.461-.641-2.351-.641-.891 0-1.675.214-2.352.641-.676.41-1.211.989-1.603 1.737-.392.748-.587 1.621-.587 2.618 0 .998.195 1.871.587 2.619a4.52 4.52 0 0 0 1.603 1.763c.677.41 1.461.615 2.352.615Zm10.31 7.508 3.287-7.161h-.775l-5.264-11.97h2.432l4.381 10.314 4.65-10.314h2.324l-8.684 19.131h-2.351Z" fill="#383838"/><path d="M147.421 59.39 120.194 26.9h10.311l19.542 23.29 19.588-23.29h10.358l-27.321 32.49h-5.251ZM200.005 26.9v32.49h-9.702V26.9h9.702ZM210.362 59.39l23.572-17.729L214.299 26.9h11.154l14.059 10.58 14.152-10.58h11.155l-19.73 14.761 23.666 17.729h-11.154l-18.089-13.544-17.996 13.544h-11.154ZM318.573 26.9v4.203h-30.696v9.93h30.696v4.204h-30.696v9.931h30.696v4.222h-40.398V26.9h40.398ZM331.462 26.9h8.858l30.931 23.19V26.9H381v32.49h-8.482l-31.351-23.475V59.39h-9.702V26.9h-.003Z" fill="#434040"/><path d="M201.171 71.984c2.152 1.95 3.231 4.303 3.231 7.06 0 2.758-1.076 5.114-3.231 7.065-2.155 1.95-4.752 2.926-7.798 2.926-3.045 0-5.643-.975-7.798-2.926-2.155-1.951-3.23-4.304-3.23-7.064s1.075-5.113 3.23-7.061c2.155-1.948 4.753-2.927 7.798-2.927 3.046 0 5.643.976 7.798 2.927Zm-7.798-1.807c-2.704 0-5.012.866-6.922 2.597-1.911 1.732-2.867 3.82-2.867 6.27 0 2.45.956 4.543 2.867 6.277 1.91 1.735 4.218 2.604 6.922 2.604 2.704 0 5.013-.87 6.923-2.604 1.91-1.734 2.867-3.827 2.867-6.276 0-2.45-.957-4.54-2.867-6.27-1.91-1.732-4.219-2.598-6.923-2.598Zm2.943-5.765-3.291 2.274h-1.129l2.189-2.274h2.231ZM213.398 70.431v18.372h-1.208V70.431h-5.439v-1.094h12.089v1.094h-5.442ZM223.003 69.337v19.466h-1.208V69.337h1.208ZM244.448 85.7l.913.744c-2.096 1.729-4.561 2.591-7.4 2.591-3.046 0-5.64-.972-7.782-2.914-2.142-1.941-3.215-4.294-3.215-7.051 0-2.757 1.073-5.097 3.215-7.045 2.142-1.948 4.74-2.92 7.782-2.92 2.839 0 5.304.862 7.4 2.59l-.913.753c-1.844-1.483-4.006-2.227-6.487-2.227-2.694 0-4.997.863-6.904 2.591-1.907 1.728-2.86 3.811-2.86 6.255 0 2.443.953 4.539 2.86 6.264 1.907 1.725 4.21 2.59 6.904 2.59 2.481 0 4.643-.743 6.487-2.226v.006ZM258.567 81.344h-7.44l-2.996 7.46h-1.289l8.005-19.916 7.992 19.915h-1.277l-2.995-7.459Zm-.442-1.095-3.278-8.161-3.278 8.161H258.125ZM275.458 69.349l4.498 14.74a81.547 81.547 0 0 0 1.123 3.462h.032c.181-.765.47-1.712.868-2.838l.211-.656 4.112-14.711h1.559l4.143 14.711c.568 2.058.904 3.23 1.014 3.523h.031a80.83 80.83 0 0 0 1.189-3.492l4.513-14.74h1.509l-6.424 19.455h-1.637l-4.144-14.156c-.558-1.863-.872-3.143-.947-3.843h-.082c-.128.728-.454 2.008-.978 3.843l-4.144 14.156h-1.606l-6.361-19.454h1.524-.003ZM313.933 69.337v1.094h-9.535v8.09h9.535v1.095h-9.535v8.09h9.535V88.8H303.19V69.334h10.743v.003ZM321.443 69.337c1.101 0 2.042.35 2.826 1.057.784.705 1.176 1.555 1.176 2.553 0 .997-.567 1.942-1.706 2.81 1.004.185 1.948.722 2.832 1.606 1.434 1.305 2.149 2.883 2.149 4.734 0 1.85-.715 3.434-2.149 4.78-1.333 1.249-2.926 1.885-4.78 1.91v.013h-4.162V69.334h3.814v.003Zm-2.607 1.094v4.975h2.914c.672-.056 1.246-.282 1.719-.68.546-.455.819-1.048.819-1.776s-.273-1.333-.819-1.807c-.546-.473-1.223-.712-2.026-.712h-2.607Zm0 6.145v11.132h2.955v.013a5.99 5.99 0 0 0 3.868-1.666c1.192-1.11 1.784-2.428 1.784-3.955 0-1.528-.595-2.826-1.784-3.905-1.192-1.08-2.629-1.619-4.31-1.619h-2.513Z" fill="#434040" stroke="#434040" stroke-width=".235" stroke-miterlimit="10"/><path d="M77.817 18.238a66.976 66.976 0 0 1 26.864-15.854c.235 2.058.402 4.522.369 7.303l-.004.286c-.034 2.115-.442 6.919-.852 8.935-.684 3.365-3.332 8.598-7.854 14.088a454.79 454.79 0 0 0 1.63-7.269c.537-2.49.751-3.588.877-5.136.136-1.662-.066-.974 0-4.761.032-1.867.089-2.477-.376-2.882-.562-.49-1.502-.285-3.383.126-1.351.296-2.385.677-3.257 1.002a33.7 33.7 0 0 0-2.382 1.002c-1.28.594-1.92.893-2.63 1.378-.952.65-1.536 1.276-2.382 2.193-.803.87-1.626 1.722-2.256 2.82-1.637 2.85-1.38 5.388-1.887 5.403-.334.01-.648-1.209-1.246-3.648-.558-2.288-1-4.066-1.23-4.985v-.002Z" fill="url('#paint0_linear_5022_1410')"/><path d="M42.968 32.49c.408 1.064-21.577 4.72-24.785 17.34-1.904 7.488 2.191 18.365 10.104 22.726C43.613 81 60.081 56.36 89.13 61.369c4.048.697 13.6 2.475 21.776 10.26 5.255 5.005 7.93 10.576 9.288 14.132-5.926-2.076-14.737-4.168-24.71-2.36-10.334 1.872-13.21 6.353-24.287 11.777-7.554 3.699-29.289 14.343-48.466 6.364-2.152-.895-14.062-6.097-19.647-19.066-3.69-8.573-4.886-21.17 1.06-29.452 3.26-4.54 9.239-8.729 9.763-9.056a95.662 95.662 0 0 1 6.69-3.808c11.545-5.967 22.084-8.42 22.37-7.67h.001Z" fill="url('#paint1_linear_5022_1410')"/><path opacity=".29" d="M43.923 34.855c.391 1.306-20.804 4.358-24.915 16.71-2.639 7.93 1.218 20.358 9.509 24.69 15.523 8.11 35.128-19.027 62.147-14.49 2.947.495 9.971 1.758 16.981 6.97 6.319 4.697 9.695 10.424 11.355 13.818-4.556-2.522-12.49-6.174-22.822-6.298-2.941-.036-5.28.15-6.67.32-10.51 1.281-16.108 5.79-25.22 10.376-8.866 4.462-16.117 8.112-25.526 8.57-4.422.213-15.012.728-23.843-6.502C2.512 78.86 3.427 61.574 5.145 56.69c1.994-5.669 6.014-9.962 6.014-9.962a27.909 27.909 0 0 1 6.39-5.074l6.203-3.196c15.493-3.682 19.993-4.206 20.171-3.605Z" fill="url('#paint2_linear_5022_1410')"/><path d="M102.228 42.515c-3.57-6.546-8.172-10.961-11.253-13.5a6.4 6.4 0 0 1-.426-1.799 6.51 6.51 0 0 1 .282-2.532c-.077.053-1.754 1.19-2.288.714-.34-.302-.07-1.127.314-2.255a15.872 15.872 0 0 1 1.254-2.79c-2.92 1-4.906.713-6.242.174-1.498-.605-1.964-1.44-3.947-2.82-1.902-1.323-3.485-1.95-5.513-2.757-5.428-2.156-10.442-2.453-13.908-2.631-5.188-.267-9.148.225-10.276.376-3.787.505-9.358 1.669-15.654 4.6v.638a7.793 7.793 0 0 1-4.472-1.146c1.166 1.076 1.519 2.503.994 3.409-.103.178-.37.558-1.001.814l-1.002-.188c-.722-.58-1.442-1.164-2.163-1.744a8.817 8.817 0 0 1 .721 3.693l-1.251-.445-1.489-.192.799.943.355 1.35-1.01.89c-4.027 2.376-10.73 7.01-16.156 14.774-4.535 6.492-6.386 12.608-7.213 16.557l3.349-1.18a11.492 11.492 0 0 1 7.392.313c-3.808 1.737-4.588 2.35-4.51 2.57.093.27 1.478-.128 4.26-.376 1.938-.173 3.983-.356 6.265 0 1.17.182 2.889.582 4.886 1.565-7.106.769-8.657 1.224-8.645 1.504.018.462 4.317.006 9.773 2.067 3.21 1.213 5.359 2.746 6.203 3.384 1.32.998 2.67 2.236 4.54 4.503 5.98 7.244 6.08 11.41 10.808 14.042a12.918 12.918 0 0 0 4.001 1.411l4.184.256 5.049-.128c1.154-.133 2.81-.487 4.432-1.537 1.968-1.275 2.753-2.84 4.51-5.639 2.248-3.579 3.37-5.366 4.761-6.892 3.173-3.477 6.776-5.161 8.646-6.015 2.14-.975 3.844-1.385 7.142-2.255 4.701-1.24 8.678-1.89 11.466-2.255l-8.644-.878a15.962 15.962 0 0 1 5.674-2.59c1.613-.376 2.955-.42 4.424-.466a34.684 34.684 0 0 1 5.483.255c-.361-3.665-1.434-9.43-4.906-15.792h.002Z" fill="url('#paint3_linear_5022_1410')"/><path d="M64.083 53.605c-.481-1.034 1.214-2.74 2.092-3.455 1.42-1.154 2.934-1.518 3.836-1.725.688-.158.558-.058 3.09-.337 2.498-.274 3.201-.434 3.35-.139.092.184-.032.54-1.698 2.055-2.16 1.966-3.278 2.964-5.148 3.76-1.832.78-2.936.756-3.548.683-.638-.075-1.673-.196-1.974-.844v.002ZM47.422 53.441c.483-1.032-1.209-2.744-2.083-3.458-1.417-1.158-2.93-1.526-3.832-1.735-.688-.16-.558-.06-3.088-.344-2.498-.28-3.201-.442-3.35-.147-.092.183.032.54 1.692 2.06 2.156 1.972 3.27 2.974 5.139 3.775 1.83.783 2.934.76 3.546.691.638-.073 1.673-.191 1.976-.84v-.002ZM48.1 80.544c.776-2.791 13.718-2.658 14.35-.12.21.85-.966 1.922-3.323 4.067-1.166 1.06-1.897 1.487-2.758 1.692-1.039.246-1.905.082-2.317 0-1.504-.301-2.485-1.094-3.133-1.63-.682-.566-3.2-2.646-2.82-4.009Z" fill="#fff"/><path d="M35.87 16.783A66.935 66.935 0 0 0 9.29.457a57.962 57.962 0 0 0-.497 7.296v.286c-.003 2.066.3 6.947.696 8.95 1.043 5.273 6.75 10.868 7.659 11.746a21.12 21.12 0 0 1-1.254-3.258 21.1 21.1 0 0 1-.626-2.881 10.313 10.313 0 0 1-.376-2.381c-.039-.998.1-1.216.188-2.694.055-.896-.07-1.97.094-3.383.243-2.092.647-2.479.846-2.631.634-.485 1.462-.35 2.444-.188.774.128 1.298.323 4.04 1.597 1.57.73 2.126 1.004 2.726 1.316 1.507.786 2.05 1.167 2.255 1.316.184.133.916.667 1.763 1.532.391.396 1.448 1.483 2.205 2.858 1.586 2.882 1.286 5.413 1.791 5.436.335.015.671-1.197 1.31-3.626.6-2.278 1.072-4.046 1.316-4.962v-.003Z" fill="url('#paint4_linear_5022_1410')"/><g clip-path="url('#clip0_5022_1410')" fill-rule="evenodd" clip-rule="evenodd"><path d="M249.278 132.209c8.503 0 10.939-1.921 10.939-8.893v-2.522c0-6.878-2.608-9.4-10.939-9.4h-23.336v5.582c7.737 0 15.427.024 23.165.024 3.505 0 4.614.898 4.614 4.06v2.006c0 3.076-1.109 3.888-4.528 3.888-7.824 0-15.436.086-23.251.086v13.507h6.496v-8.331h16.84v-.007Zm49.617 6.199c.773 1.71 2.053 2.779 4.099 2.779 1.881 0 3.123-1.155 3.849-2.779 1.881-4.404 9.954-22.564 11.922-27.014h-7.097l-8.846 21.072-8.331-19.105c-.812-1.92-1.881-2.607-3.974-2.607-2.092 0-3.076.687-3.935 2.607l-8.674 19.105-8.541-21.072h-7.222l11.329 27.014c.687 1.671 1.795 2.779 3.888 2.779 2.092 0 3.334-1.108 4.146-2.779l8.931-18.801 8.464 18.801h-.008Zm29.403 2.131v-29.207l-6.496.054v29.153h6.496Z" fill="#002751"/><path d="M177.785 126.728c1.413 0 2.647.515 3.701 1.546 1.054 1.03 1.616 2.248 1.671 3.661-.055 2.983.976 5.583 3.092 7.808 2.115 2.17 4.661 3.256 7.643 3.256h.242c2.928 0 5.45-1.086 7.566-3.256 2.17-2.171 3.224-4.771 3.169-7.808-.054-2.982-1.163-5.504-3.333-7.565-2.226-2.116-4.825-3.146-7.808-3.092-1.413-.054-2.615-.609-3.623-1.671-.999-1.054-1.506-2.318-1.506-3.778s.531-2.725 1.585-3.787c1.054-1.062 2.342-1.585 3.864-1.585 1.523 0 2.725.531 3.787 1.585 1.054 1.054 1.585 2.319 1.585 3.787 0 2.873 1.03 5.426 3.092 7.643 2.115 2.116 4.637 3.201 7.565 3.256 1.952-.11 3.443.593 4.474 2.116 1.03 1.467 1.358 3.013.976 4.637-.758 2.709-2.499 4.068-5.208 4.068h-.242c-3.037.109-5.559 1.218-7.565 3.334-2.062 2.061-3.092 4.583-3.092 7.565 0 1.468-.531 2.725-1.585 3.779-1.054 1.062-2.319 1.585-3.787 1.585h-.164c-1.468 0-2.709-.531-3.74-1.585-1.03-1.054-1.545-2.319-1.545-3.779 0-2.982-1.031-5.504-3.092-7.565-2.061-2.116-4.552-3.225-7.48-3.334-1.569.055-2.912-.445-4.028-1.507-1.109-1.054-1.671-2.373-1.671-3.943 0-1.467.531-2.724 1.585-3.778 1.054-1.055 2.35-1.585 3.864-1.585l.008-.008Z" fill="#23BAED"/><path d="M178.145 142.522a5.614 5.614 0 0 1 0 11.227c-3.1 0-5.622-2.514-5.622-5.613 0-3.1 2.514-5.614 5.614-5.614h.008Zm31.815-31.815a5.614 5.614 0 0 1 0 11.227 5.614 5.614 0 0 1 0-11.227Z" fill="#91BE3E"/><path d="M209.96 142.522a5.615 5.615 0 0 1 0 11.227 5.614 5.614 0 0 1 0-11.227Zm-31.831-31.839c-1.468 0-2.725.531-3.779 1.585-1.062 1.054-1.593 2.319-1.593 3.779 0 1.57.555 2.889 1.671 3.943 1.109 1.054 2.428 1.561 3.943 1.507 3.037.109 5.559 1.218 7.565 3.334 2.062 2.061 3.092 4.583 3.092 7.565 0 1.468.531 2.725 1.585 3.779 1.054 1.054 2.35 1.585 3.865 1.585 1.514 0 2.725-.531 3.779-1.585 1.054-1.062 1.585-2.319 1.585-3.779s-.5-2.725-1.507-3.779c-1.007-1.054-2.21-1.616-3.623-1.671-3.092.055-5.723-.999-7.893-3.169-2.225-2.226-3.311-4.857-3.256-7.894-.055-1.413-.593-2.631-1.624-3.661-1.031-1.031-2.303-1.546-3.826-1.546l.016.007Z" fill="#006BAF"/><path d="m225.879 151.243 1.055-.093v.062c.046.312.124.632.304.89.172.258.437.437.718.562.352.156.734.219 1.117.219.328 0 .663-.039.968-.164.234-.094.461-.227.609-.437.125-.18.195-.375.195-.602a.91.91 0 0 0-.187-.57c-.156-.195-.414-.327-.641-.413-.398-.149-.905-.258-1.319-.359-.445-.11-1.046-.258-1.452-.469a2.145 2.145 0 0 1-.82-.718 1.762 1.762 0 0 1-.273-.961c0-.398.117-.757.328-1.093.234-.359.57-.609.968-.772.445-.18.913-.258 1.39-.258.507 0 1.014.078 1.483.273.414.172.757.437.999.812.242.367.359.773.375 1.21v.063l-1.07.086v-.063c-.046-.39-.187-.765-.499-1.023-.344-.281-.828-.343-1.257-.343-.43 0-.937.047-1.265.312-.234.188-.383.43-.383.742 0 .242.086.445.266.609.265.242 1.108.437 1.452.515.508.117 1.187.266 1.663.476.383.18.75.43.984.781.218.328.32.695.32 1.093a2.1 2.1 0 0 1-.351 1.156c-.25.382-.594.655-1.008.843a3.46 3.46 0 0 1-1.46.297c-.577 0-1.186-.071-1.717-.297a2.41 2.41 0 0 1-1.101-.914 2.59 2.59 0 0 1-.422-1.374v-.062l.031-.016Zm14.749 2.522v-7.581h1.124v7.581h-1.124Zm9.72-2.522 1.054-.093v.062c.047.312.125.632.305.89.171.258.437.437.718.562a2.74 2.74 0 0 0 1.116.219c.328 0 .664-.039.968-.164.235-.094.461-.227.609-.437.125-.18.196-.375.196-.602a.91.91 0 0 0-.188-.57c-.156-.195-.414-.327-.64-.413-.398-.149-.906-.258-1.319-.359-.445-.11-1.047-.258-1.453-.469a2.142 2.142 0 0 1-.819-.718 1.755 1.755 0 0 1-.274-.961c0-.398.117-.757.328-1.093.234-.359.57-.609.968-.772.445-.18.914-.258 1.39-.258.508 0 1.015.078 1.484.273.413.172.757.437.999.812.242.367.359.773.375 1.21v.063l-1.07.086v-.063c-.047-.39-.187-.765-.5-1.023-.343-.281-.827-.343-1.257-.343-.429 0-.937.047-1.264.312-.235.188-.383.43-.383.742a.79.79 0 0 0 .265.609c.266.242 1.109.437 1.453.515.507.117 1.186.266 1.663.476.382.18.749.43.983.781.219.328.32.695.32 1.093 0 .422-.124.804-.351 1.156a2.31 2.31 0 0 1-1.007.843 3.467 3.467 0 0 1-1.46.297c-.578 0-1.187-.071-1.718-.297a2.416 2.416 0 0 1-1.101-.914 2.58 2.58 0 0 1-.421-1.374v-.062l.031-.016Zm16.474-4.052h-2.452v-1.007h6.028v1.007h-2.452v6.574h-1.124v-6.574Zm12.921 0v2.155h4.107v1.007h-4.107v2.405h4.568v1.007h-5.684v-7.581h5.512v1.007h-4.396Zm16.755 5.216c.109-.336.219-.664.336-.992l1.811-5.223h1.437v7.581h-1.078v-5.903l-2.061 5.903h-.984l-2.037-6.004v6.004h-1.078v-7.581h1.593l1.772 5.317c.102.296.195.601.297.898h-.008Zm16.544-.898h-3.045l-.812 2.256h-1.187l2.905-7.581h1.171l3.084 7.581h-1.265l-.859-2.256h.008Zm9.736-.266 1.054-.093v.062c.047.312.125.632.304.89.172.258.438.437.719.562a2.74 2.74 0 0 0 1.116.219c.328 0 .664-.039.968-.164.235-.094.461-.227.609-.437.125-.18.195-.375.195-.602a.91.91 0 0 0-.187-.57c-.156-.195-.414-.327-.64-.413-.398-.149-.906-.258-1.32-.359-.445-.11-1.046-.258-1.452-.469a2.145 2.145 0 0 1-.82-.718 1.762 1.762 0 0 1-.273-.961c0-.398.117-.757.328-1.093.234-.359.57-.609.968-.772.445-.18.914-.258 1.39-.258a3.85 3.85 0 0 1 1.483.273 2.13 2.13 0 0 1 1 .812c.242.367.359.773.374 1.21v.063l-1.069.086v-.063c-.047-.39-.188-.765-.5-1.023-.343-.281-.827-.343-1.257-.343-.429 0-.937.047-1.265.312-.234.188-.382.43-.382.742a.79.79 0 0 0 .265.609c.266.242 1.109.437 1.452.515.508.117 1.187.266 1.663.476.383.18.75.43.984.781.219.328.32.695.32 1.093a2.1 2.1 0 0 1-.351 1.156 2.31 2.31 0 0 1-1.007.843 3.467 3.467 0 0 1-1.46.297c-.578 0-1.187-.071-1.718-.297a2.416 2.416 0 0 1-1.101-.914 2.58 2.58 0 0 1-.421-1.374v-.062l.031-.016Zm-12.445-.671h2.342l-.742-1.976c-.164-.437-.32-.874-.46-1.319a9.272 9.272 0 0 1-.359 1.195l-.781 2.092v.008Z" fill="#91BE3E"/></g><defs><linearGradient id="paint0_linear_5022_1410" x1="104.37" y1="17.961" x2="78.191" y2="14.923" gradientUnits="userSpaceOnUse"><stop offset=".17" stop-color="#00A4DA"/><stop offset=".36" stop-color="#00A4DA"/><stop offset=".99" stop-color="#162766"/></linearGradient><linearGradient id="paint1_linear_5022_1410" x1="1.393" y1="76.916" x2="114.435" y2="53.527" gradientUnits="userSpaceOnUse"><stop stop-color="#162766"/><stop offset=".51" stop-color="#00A4DA"/><stop offset=".59" stop-color="#00A6DB"/><stop offset=".97" stop-color="#56ACDE"/></linearGradient><linearGradient id="paint2_linear_5022_1410" x1="5.056" y1="73.361" x2="111.87" y2="51.261" gradientUnits="userSpaceOnUse"><stop stop-color="#00A4DA"/><stop offset=".16" stop-color="#162766"/><stop offset=".42" stop-color="#56ACDE"/><stop offset=".51" stop-color="#009EA9"/><stop offset=".89" stop-color="#162766"/></linearGradient><linearGradient id="paint3_linear_5022_1410" x1="1.681" y1="49.475" x2="107.134" y2="49.475" gradientUnits="userSpaceOnUse"><stop offset=".04" stop-color="#56ACDE"/><stop offset=".44" stop-color="#0098DB"/><stop offset=".69" stop-color="#004F84"/><stop offset=".92" stop-color="#162766"/></linearGradient><linearGradient id="paint4_linear_5022_1410" x1="9.199" y1="14.919" x2="35.435" y2="12.342" gradientUnits="userSpaceOnUse"><stop stop-color="#162766"/><stop offset=".84" stop-color="#00A4DA"/><stop offset=".92" stop-color="#00A4DA"/></linearGradient><clipPath id="clip0_5022_1410"><path fill="#fff" transform="translate(172.336 110.457)" d="M0 0h156.501v43.433H0z"/></clipPath></defs></svg>