<svg width="30" height="30" fill="none" xmlns="http://www.w3.org/2000/svg"><g id="south_america_24dp_FILL0_wght400_GRAD0_opsz24"><path id="Vector" d="M15 27.5c-1.73 0-3.354-.328-4.875-.984a12.622 12.622 0 0 1-3.969-2.672 12.624 12.624 0 0 1-2.672-3.969C2.828 18.355 2.5 16.729 2.5 15c0-1.73.328-3.354.984-4.875a12.623 12.623 0 0 1 2.672-3.969 12.623 12.623 0 0 1 3.969-2.672C11.645 2.828 13.271 2.5 15 2.5c1.73 0 3.354.328 4.875.984a12.624 12.624 0 0 1 3.969 2.672 12.622 12.622 0 0 1 2.672 3.969c.656 1.52.984 3.146.984 4.875 0 1.73-.328 3.354-.984 4.875a12.623 12.623 0 0 1-2.672 3.969 12.623 12.623 0 0 1-3.969 2.672c-1.52.656-3.146.984-4.875.984Zm0-2.5-.875-.875a1.296 1.296 0 0 1-.281-.406 1.176 1.176 0 0 1-.094-.469v-7a2.407 2.407 0 0 1-1.766-.734 2.407 2.407 0 0 1-.734-1.766V12.5L7.344 8.594a10.368 10.368 0 0 0-1.719 2.937A9.58 9.58 0 0 0 5 15c0 2.792.969 5.156 2.906 7.094C9.844 24.03 12.208 25 15 25Zm1.25-.063c2.48-.312 4.557-1.406 6.234-3.28C24.161 19.78 25 17.561 25 15c0-2.77-.974-5.13-2.922-7.078C20.13 5.974 17.771 5 15 5a9.62 9.62 0 0 0-2.64.36c-.844.239-1.63.567-2.36.984V8.75h4.438c.374 0 .734.083 1.078.25.343.167.63.396.859.688l1.75 2.187H20c.354 0 .651.12.89.36.24.239.36.536.36.89v1.313c0 .187-.026.364-.078.53-.052.167-.13.334-.235.5L16.25 22.5v2.438Z" fill="#23BAED"/></g></svg>