<svg width="30" height="31" fill="none" xmlns="http://www.w3.org/2000/svg"><g id="fi_1384023"><path id="Vector" fill-rule="evenodd" clip-rule="evenodd" d="M23.896 6.572A12.1 12.1 0 0 0 15.28 3C8.568 3 3.105 8.463 3.102 15.178c0 2.146.56 4.241 1.626 6.088L3 27.577l6.456-1.693a12.165 12.165 0 0 0 5.82 1.482h.005c6.712 0 12.176-5.464 12.178-12.178a12.103 12.103 0 0 0-3.563-8.616ZM15.28 25.309h-.004a10.11 10.11 0 0 1-5.152-1.41l-.37-.22-3.83 1.005 1.022-3.736-.241-.383a10.097 10.097 0 0 1-1.548-5.387c.003-5.58 4.544-10.121 10.127-10.121 2.704 0 5.245 1.055 7.156 2.968a10.063 10.063 0 0 1 2.962 7.162c-.002 5.581-4.543 10.122-10.122 10.122Zm5.552-7.581c-.304-.152-1.8-.888-2.08-.99-.278-.102-.48-.152-.684.152-.203.305-.786.99-.963 1.193-.178.204-.355.229-.66.077-.304-.153-1.284-.474-2.447-1.51-.904-.808-1.515-1.804-1.693-2.109-.177-.305-.001-.453.134-.62.33-.41.66-.839.76-1.042.102-.203.051-.38-.025-.533-.076-.152-.684-1.65-.938-2.26-.247-.593-.498-.512-.685-.522a12.16 12.16 0 0 0-.583-.01c-.203 0-.532.076-.811.38-.28.305-1.065 1.041-1.065 2.54 0 1.497 1.09 2.944 1.242 3.147.152.203 2.146 3.277 5.198 4.595.727.313 1.293.5 1.735.64.73.232 1.393.2 1.917.121.585-.087 1.8-.736 2.054-1.447.254-.71.254-1.32.177-1.447-.076-.127-.279-.203-.583-.355Z" fill="#23BAED"/></g></svg>